<mxfile host="Electron" modified="2023-06-02T13:20:45.187Z" agent="Mozilla/5.0 (Windows NT 10.0; Win64; x64) AppleWebKit/537.36 (KHTML, like Gecko) draw.io/21.2.8 Chrome/112.0.5615.165 Electron/24.2.0 Safari/537.36" etag="q0QzoG8ALHJ6pBeghkwC" version="21.2.8" type="device">
  <diagram name="Page-1" id="dXCrmej_SELilW4q_A5O">
    <mxGraphModel dx="1569" dy="1171" grid="1" gridSize="10" guides="1" tooltips="1" connect="1" arrows="1" fold="1" page="1" pageScale="1" pageWidth="850" pageHeight="1100" math="0" shadow="0">
      <root>
        <mxCell id="0" />
        <mxCell id="1" parent="0" />
        <mxCell id="Dqj2xxhlHjJNIsNR0y4L-1" style="edgeStyle=orthogonalEdgeStyle;rounded=0;orthogonalLoop=1;jettySize=auto;html=1;" parent="1" source="Dqj2xxhlHjJNIsNR0y4L-2" target="Dqj2xxhlHjJNIsNR0y4L-4" edge="1">
          <mxGeometry relative="1" as="geometry" />
        </mxCell>
        <mxCell id="Dqj2xxhlHjJNIsNR0y4L-2" value="" style="ellipse;html=1;fillColor=#141314;strokeColor=#9673a6;" parent="1" vertex="1">
          <mxGeometry x="411.09000000000003" y="170" width="30" height="30" as="geometry" />
        </mxCell>
        <mxCell id="Dqj2xxhlHjJNIsNR0y4L-3" style="edgeStyle=orthogonalEdgeStyle;rounded=0;orthogonalLoop=1;jettySize=auto;html=1;" parent="1" source="Dqj2xxhlHjJNIsNR0y4L-4" target="Dqj2xxhlHjJNIsNR0y4L-6" edge="1">
          <mxGeometry relative="1" as="geometry" />
        </mxCell>
        <mxCell id="Dqj2xxhlHjJNIsNR0y4L-4" value="Вход в системата" style="html=1;dashed=0;whitespace=wrap;" parent="1" vertex="1">
          <mxGeometry x="358.28000000000003" y="230" width="135.62" height="30" as="geometry" />
        </mxCell>
        <mxCell id="Dqj2xxhlHjJNIsNR0y4L-5" style="edgeStyle=orthogonalEdgeStyle;rounded=0;orthogonalLoop=1;jettySize=auto;html=1;" parent="1" source="Dqj2xxhlHjJNIsNR0y4L-6" edge="1">
          <mxGeometry relative="1" as="geometry">
            <mxPoint x="426.13999999999993" y="340" as="targetPoint" />
          </mxGeometry>
        </mxCell>
        <mxCell id="Dqj2xxhlHjJNIsNR0y4L-6" value="Отваряне на раздел&lt;br&gt;СЪСТЕЗАНИЯ КОНТРОЛНИ" style="html=1;dashed=0;whitespace=wrap;" parent="1" vertex="1">
          <mxGeometry x="340.54" y="280" width="171.09" height="40" as="geometry" />
        </mxCell>
        <mxCell id="_0RtPJ1QO2Pk17CII41--75" style="edgeStyle=orthogonalEdgeStyle;rounded=0;orthogonalLoop=1;jettySize=auto;html=1;" edge="1" parent="1" source="_0RtPJ1QO2Pk17CII41--1" target="_0RtPJ1QO2Pk17CII41--7">
          <mxGeometry relative="1" as="geometry" />
        </mxCell>
        <mxCell id="_0RtPJ1QO2Pk17CII41--1" value="Избор на&lt;br&gt;ЕРА" style="html=1;dashed=0;whitespace=wrap;" vertex="1" parent="1">
          <mxGeometry x="445.33000000000004" y="532.5" width="117.64" height="40" as="geometry" />
        </mxCell>
        <mxCell id="_0RtPJ1QO2Pk17CII41--76" style="edgeStyle=orthogonalEdgeStyle;rounded=0;orthogonalLoop=1;jettySize=auto;html=1;" edge="1" parent="1" source="_0RtPJ1QO2Pk17CII41--7" target="_0RtPJ1QO2Pk17CII41--60">
          <mxGeometry relative="1" as="geometry" />
        </mxCell>
        <mxCell id="_0RtPJ1QO2Pk17CII41--7" value="Избор на&lt;br&gt;УРОК" style="html=1;dashed=0;whitespace=wrap;" vertex="1" parent="1">
          <mxGeometry x="445.33000000000004" y="612.5" width="117.64" height="40" as="geometry" />
        </mxCell>
        <mxCell id="_0RtPJ1QO2Pk17CII41--44" style="edgeStyle=orthogonalEdgeStyle;rounded=0;orthogonalLoop=1;jettySize=auto;html=1;entryX=0.5;entryY=0;entryDx=0;entryDy=0;" edge="1" parent="1" source="_0RtPJ1QO2Pk17CII41--40" target="_0RtPJ1QO2Pk17CII41--41">
          <mxGeometry relative="1" as="geometry" />
        </mxCell>
        <mxCell id="_0RtPJ1QO2Pk17CII41--79" style="edgeStyle=orthogonalEdgeStyle;rounded=0;orthogonalLoop=1;jettySize=auto;html=1;exitX=0.671;exitY=0.513;exitDx=0;exitDy=0;exitPerimeter=0;" edge="1" parent="1" source="_0RtPJ1QO2Pk17CII41--66" target="_0RtPJ1QO2Pk17CII41--40">
          <mxGeometry relative="1" as="geometry" />
        </mxCell>
        <mxCell id="_0RtPJ1QO2Pk17CII41--40" value="Промяна на видимостта" style="html=1;dashed=0;whitespace=wrap;" vertex="1" parent="1">
          <mxGeometry x="345.0000000000001" y="820" width="160" height="40" as="geometry" />
        </mxCell>
        <mxCell id="_0RtPJ1QO2Pk17CII41--41" value="" style="ellipse;whiteSpace=wrap;html=1;aspect=fixed;" vertex="1" parent="1">
          <mxGeometry x="410.0000000000001" y="900" width="30" height="30" as="geometry" />
        </mxCell>
        <mxCell id="_0RtPJ1QO2Pk17CII41--42" value="" style="ellipse;whiteSpace=wrap;html=1;aspect=fixed;fillColor=#141314;" vertex="1" parent="1">
          <mxGeometry x="415.0000000000001" y="905" width="20" height="20" as="geometry" />
        </mxCell>
        <mxCell id="_0RtPJ1QO2Pk17CII41--49" style="rounded=0;orthogonalLoop=1;jettySize=auto;html=1;" edge="1" parent="1" source="_0RtPJ1QO2Pk17CII41--46" target="_0RtPJ1QO2Pk17CII41--47">
          <mxGeometry relative="1" as="geometry" />
        </mxCell>
        <mxCell id="_0RtPJ1QO2Pk17CII41--50" style="rounded=0;orthogonalLoop=1;jettySize=auto;html=1;" edge="1" parent="1" source="_0RtPJ1QO2Pk17CII41--46" target="_0RtPJ1QO2Pk17CII41--48">
          <mxGeometry relative="1" as="geometry" />
        </mxCell>
        <mxCell id="_0RtPJ1QO2Pk17CII41--46" value="" style="rhombus;whiteSpace=wrap;html=1;" vertex="1" parent="1">
          <mxGeometry x="401.09000000000003" y="340" width="50" height="50" as="geometry" />
        </mxCell>
        <mxCell id="_0RtPJ1QO2Pk17CII41--63" style="rounded=0;orthogonalLoop=1;jettySize=auto;html=1;edgeStyle=orthogonalEdgeStyle;exitX=0.5;exitY=1;exitDx=0;exitDy=0;" edge="1" parent="1" source="_0RtPJ1QO2Pk17CII41--47">
          <mxGeometry relative="1" as="geometry">
            <mxPoint x="431.54" y="490" as="targetPoint" />
            <Array as="points">
              <mxPoint x="315.54" y="470" />
              <mxPoint x="431.54" y="470" />
            </Array>
          </mxGeometry>
        </mxCell>
        <mxCell id="_0RtPJ1QO2Pk17CII41--47" value="Отваряне на страница&lt;br&gt;СЪСТЕЗАНИЯ от раздел&lt;br&gt;СПРИ / ПУСНИ" style="html=1;dashed=0;whitespace=wrap;" vertex="1" parent="1">
          <mxGeometry x="230" y="400" width="171.09" height="50" as="geometry" />
        </mxCell>
        <mxCell id="_0RtPJ1QO2Pk17CII41--65" style="edgeStyle=orthogonalEdgeStyle;rounded=0;orthogonalLoop=1;jettySize=auto;html=1;" edge="1" parent="1" source="_0RtPJ1QO2Pk17CII41--48">
          <mxGeometry relative="1" as="geometry">
            <mxPoint x="431.54" y="490" as="targetPoint" />
            <Array as="points">
              <mxPoint x="534.54" y="470" />
              <mxPoint x="431.54" y="470" />
            </Array>
          </mxGeometry>
        </mxCell>
        <mxCell id="_0RtPJ1QO2Pk17CII41--48" value="Отваряне на страница&lt;br&gt;КОНТРОЛНИ от раздел&lt;br&gt;СПРИ / ПУСНИ" style="html=1;dashed=0;whitespace=wrap;" vertex="1" parent="1">
          <mxGeometry x="448.6" y="400" width="171.09" height="50" as="geometry" />
        </mxCell>
        <mxCell id="_0RtPJ1QO2Pk17CII41--51" value="състезания" style="text;html=1;strokeColor=none;fillColor=none;align=center;verticalAlign=middle;whiteSpace=wrap;rounded=0;" vertex="1" parent="1">
          <mxGeometry x="309.78000000000003" y="360" width="80" height="30" as="geometry" />
        </mxCell>
        <mxCell id="_0RtPJ1QO2Pk17CII41--52" value="контролни" style="text;html=1;strokeColor=none;fillColor=none;align=center;verticalAlign=middle;whiteSpace=wrap;rounded=0;" vertex="1" parent="1">
          <mxGeometry x="468.6" y="360" width="80" height="30" as="geometry" />
        </mxCell>
        <mxCell id="_0RtPJ1QO2Pk17CII41--68" style="rounded=0;orthogonalLoop=1;jettySize=auto;html=1;entryX=0.5;entryY=0;entryDx=0;entryDy=0;exitX=0.733;exitY=0.39;exitDx=0;exitDy=0;exitPerimeter=0;" edge="1" parent="1" source="_0RtPJ1QO2Pk17CII41--58" target="_0RtPJ1QO2Pk17CII41--1">
          <mxGeometry relative="1" as="geometry" />
        </mxCell>
        <mxCell id="_0RtPJ1QO2Pk17CII41--58" value="" style="html=1;points=[];perimeter=orthogonalPerimeter;fillColor=strokeColor;rotation=90;" vertex="1" parent="1">
          <mxGeometry x="421.54" y="385" width="5" height="220" as="geometry" />
        </mxCell>
        <mxCell id="_0RtPJ1QO2Pk17CII41--72" style="rounded=0;orthogonalLoop=1;jettySize=auto;html=1;entryX=0.043;entryY=0.443;entryDx=0;entryDy=0;entryPerimeter=0;exitX=0.5;exitY=1;exitDx=0;exitDy=0;" edge="1" parent="1" source="_0RtPJ1QO2Pk17CII41--60" target="_0RtPJ1QO2Pk17CII41--66">
          <mxGeometry relative="1" as="geometry" />
        </mxCell>
        <mxCell id="_0RtPJ1QO2Pk17CII41--60" value="Избор на&lt;br&gt;бланка" style="html=1;dashed=0;whitespace=wrap;" vertex="1" parent="1">
          <mxGeometry x="445.33000000000004" y="687.5" width="117.64" height="40" as="geometry" />
        </mxCell>
        <mxCell id="_0RtPJ1QO2Pk17CII41--61" value="Избор на&lt;br&gt;клас" style="html=1;dashed=0;whitespace=wrap;" vertex="1" parent="1">
          <mxGeometry x="288.00000000000006" y="612.5" width="117.64" height="40" as="geometry" />
        </mxCell>
        <mxCell id="_0RtPJ1QO2Pk17CII41--66" value="" style="html=1;points=[];perimeter=orthogonalPerimeter;fillColor=strokeColor;rotation=90;" vertex="1" parent="1">
          <mxGeometry x="425.00000000000006" y="665" width="5" height="220" as="geometry" />
        </mxCell>
        <mxCell id="_0RtPJ1QO2Pk17CII41--70" value="" style="endArrow=none;html=1;rounded=0;entryX=0.62;entryY=0.538;entryDx=0;entryDy=0;entryPerimeter=0;" edge="1" parent="1" target="_0RtPJ1QO2Pk17CII41--58">
          <mxGeometry width="50" height="50" relative="1" as="geometry">
            <mxPoint x="340" y="540" as="sourcePoint" />
            <mxPoint x="451.54" y="560" as="targetPoint" />
          </mxGeometry>
        </mxCell>
        <mxCell id="_0RtPJ1QO2Pk17CII41--71" value="" style="endArrow=classic;html=1;rounded=0;" edge="1" parent="1">
          <mxGeometry width="50" height="50" relative="1" as="geometry">
            <mxPoint x="340" y="540" as="sourcePoint" />
            <mxPoint x="340" y="610" as="targetPoint" />
          </mxGeometry>
        </mxCell>
        <mxCell id="_0RtPJ1QO2Pk17CII41--73" value="" style="endArrow=none;html=1;rounded=0;entryX=0.444;entryY=1.023;entryDx=0;entryDy=0;entryPerimeter=0;" edge="1" parent="1" target="_0RtPJ1QO2Pk17CII41--61">
          <mxGeometry width="50" height="50" relative="1" as="geometry">
            <mxPoint x="340" y="730" as="sourcePoint" />
            <mxPoint x="487.09000000000003" y="660" as="targetPoint" />
          </mxGeometry>
        </mxCell>
        <mxCell id="_0RtPJ1QO2Pk17CII41--74" value="" style="endArrow=classic;html=1;rounded=0;entryX=-0.15;entryY=0.586;entryDx=0;entryDy=0;entryPerimeter=0;" edge="1" parent="1" target="_0RtPJ1QO2Pk17CII41--66">
          <mxGeometry width="50" height="50" relative="1" as="geometry">
            <mxPoint x="340" y="730" as="sourcePoint" />
            <mxPoint x="391.54" y="770" as="targetPoint" />
          </mxGeometry>
        </mxCell>
      </root>
    </mxGraphModel>
  </diagram>
</mxfile>
